<mxfile host="app.diagrams.net" modified="2021-05-06T03:30:42.619Z" agent="5.0 (Windows NT 10.0; Win64; x64) AppleWebKit/537.36 (KHTML, like Gecko) Chrome/90.0.4430.93 Safari/537.36" etag="piHoCFtpUgyP-yxRba0a" version="14.6.10" type="github">
  <diagram id="ofUUVFn5tLOiKQuakarS" name="Page-1">
    <mxGraphModel dx="1038" dy="580" grid="1" gridSize="10" guides="1" tooltips="1" connect="1" arrows="1" fold="1" page="1" pageScale="1" pageWidth="827" pageHeight="1169" math="0" shadow="0">
      <root>
        <mxCell id="0" />
        <mxCell id="1" parent="0" />
        <mxCell id="7gOXyf1R_mcmTL4wc7NC-3" value="" style="ellipse;whiteSpace=wrap;html=1;dashed=1;" parent="1" vertex="1">
          <mxGeometry x="60" y="200" width="270" height="150" as="geometry" />
        </mxCell>
        <mxCell id="7gOXyf1R_mcmTL4wc7NC-4" value="&lt;span style=&quot;color: rgb(0 , 0 , 0) ; font-family: &amp;#34;helvetica&amp;#34; ; font-style: normal ; font-weight: 400 ; letter-spacing: normal ; text-align: center ; text-indent: 0px ; text-transform: none ; word-spacing: 0px ; background-color: rgb(248 , 249 , 250) ; display: inline ; float: none&quot;&gt;&lt;font style=&quot;font-size: 18px&quot;&gt;CRM - Customer Relationship Management&lt;/font&gt;&lt;/span&gt;" style="rounded=0;whiteSpace=wrap;html=1;fillColor=#f5f5f5;strokeColor=#666666;fontColor=#333333;" parent="1" vertex="1">
          <mxGeometry x="107" y="245" width="176" height="70" as="geometry" />
        </mxCell>
        <mxCell id="7gOXyf1R_mcmTL4wc7NC-6" value="&lt;span id=&quot;docs-internal-guid-01f24d8b-7fff-2e91-310c-5bba79cc8ed7&quot;&gt;&lt;span style=&quot;font-family: &amp;#34;arial&amp;#34; ; background-color: transparent ; vertical-align: baseline&quot;&gt;&lt;span id=&quot;docs-internal-guid-97d206a0-7fff-72b2-f705-602895639316&quot;&gt;&lt;br&gt;&lt;div dir=&quot;ltr&quot; style=&quot;margin-left: 0pt&quot; align=&quot;left&quot;&gt;&lt;br&gt;&lt;/div&gt;&lt;/span&gt;&lt;div dir=&quot;ltr&quot; style=&quot;margin-left: 0pt&quot; align=&quot;left&quot;&gt;&lt;table style=&quot;border: none ; border-collapse: collapse&quot;&gt;&lt;colgroup&gt;&lt;col width=&quot;187&quot;&gt;&lt;col width=&quot;453&quot;&gt;&lt;/colgroup&gt;&lt;tbody&gt;&lt;tr style=&quot;height: 0pt&quot;&gt;&lt;td style=&quot;border-left: solid #ff9900 1pt ; border-right: solid #ff9900 1pt ; border-bottom: solid #ff9900 1pt ; border-top: solid #ff9900 1pt ; vertical-align: top ; padding: 5pt 5pt 5pt 5pt ; overflow: hidden ; overflow-wrap: break-word&quot;&gt;&lt;span style=&quot;text-align: justify&quot;&gt;Gerente operacional&lt;/span&gt;&lt;/td&gt;&lt;/tr&gt;&lt;/tbody&gt;&lt;/table&gt;&lt;/div&gt;&lt;/span&gt;&lt;/span&gt;" style="shape=umlActor;verticalLabelPosition=bottom;verticalAlign=top;html=1;outlineConnect=0;fillColor=#ffe6cc;strokeColor=#d79b00;" parent="1" vertex="1">
          <mxGeometry x="360" y="390" width="30" height="60" as="geometry" />
        </mxCell>
        <mxCell id="7gOXyf1R_mcmTL4wc7NC-8" value="&lt;span style=&quot;font-family: &amp;#34;arial&amp;#34;&quot;&gt;&lt;font style=&quot;font-size: 12px&quot;&gt;Sócios-Administradores&lt;/font&gt;&lt;/span&gt;" style="shape=umlActor;verticalLabelPosition=bottom;verticalAlign=top;html=1;outlineConnect=0;fillColor=#ffe6cc;strokeColor=#d79b00;" parent="1" vertex="1">
          <mxGeometry x="410" y="250" width="30" height="60" as="geometry" />
        </mxCell>
        <mxCell id="7gOXyf1R_mcmTL4wc7NC-10" value="" style="endArrow=classic;startArrow=classic;html=1;" parent="1" edge="1">
          <mxGeometry width="50" height="50" relative="1" as="geometry">
            <mxPoint x="310" y="270" as="sourcePoint" />
            <mxPoint x="395" y="270" as="targetPoint" />
          </mxGeometry>
        </mxCell>
        <mxCell id="7gOXyf1R_mcmTL4wc7NC-12" value="" style="endArrow=classic;startArrow=classic;html=1;" parent="1" edge="1">
          <mxGeometry width="50" height="50" relative="1" as="geometry">
            <mxPoint x="350" y="380" as="sourcePoint" />
            <mxPoint x="230" y="330" as="targetPoint" />
          </mxGeometry>
        </mxCell>
        <mxCell id="7gOXyf1R_mcmTL4wc7NC-20" value="" style="endArrow=classic;html=1;startArrow=classic;startFill=1;" parent="1" edge="1">
          <mxGeometry width="50" height="50" relative="1" as="geometry">
            <mxPoint x="470" y="270" as="sourcePoint" />
            <mxPoint x="520" y="320" as="targetPoint" />
            <Array as="points">
              <mxPoint x="520" y="270" />
            </Array>
          </mxGeometry>
        </mxCell>
        <mxCell id="7gOXyf1R_mcmTL4wc7NC-22" value="&lt;span id=&quot;docs-internal-guid-fb2c7dd1-7fff-ee3d-ec5d-07ece8136c74&quot;&gt;&lt;span style=&quot;font-family: &amp;#34;arial&amp;#34; ; background-color: transparent ; vertical-align: baseline&quot;&gt;&lt;font style=&quot;font-size: 15px&quot;&gt;Gerenciamento manual dos faturamentos&lt;/font&gt;&lt;/span&gt;&lt;/span&gt;" style="rounded=0;whiteSpace=wrap;html=1;fillColor=#f5f5f5;strokeColor=#666666;fontColor=#333333;" parent="1" vertex="1">
          <mxGeometry x="480" y="340" width="120" height="60" as="geometry" />
        </mxCell>
        <mxCell id="IGN8ruvCPKyGlNlwhIGV-1" value="Fronteira Sistêmica" style="shape=callout;whiteSpace=wrap;html=1;perimeter=calloutPerimeter;position2=0.17;dashed=1;" parent="1" vertex="1">
          <mxGeometry x="294" y="160" width="120" height="80" as="geometry" />
        </mxCell>
        <mxCell id="4lb6yPEp9kyUfiVUmwPT-1" value="&lt;span id=&quot;docs-internal-guid-01f24d8b-7fff-2e91-310c-5bba79cc8ed7&quot;&gt;&lt;span style=&quot;font-family: &amp;#34;arial&amp;#34; ; background-color: transparent ; vertical-align: baseline&quot;&gt;&lt;br&gt;&lt;div dir=&quot;ltr&quot; style=&quot;margin-left: 0pt&quot; align=&quot;left&quot;&gt;&lt;table style=&quot;border: none ; border-collapse: collapse&quot;&gt;&lt;colgroup&gt;&lt;col width=&quot;187&quot;&gt;&lt;col width=&quot;453&quot;&gt;&lt;/colgroup&gt;&lt;tbody&gt;&lt;tr style=&quot;height: 0pt&quot;&gt;&lt;td style=&quot;border-left: solid #ff9900 1pt ; border-right: solid #ff9900 1pt ; border-bottom: solid #ff9900 1pt ; border-top: solid #ff9900 1pt ; vertical-align: top ; padding: 5pt 5pt 5pt 5pt ; overflow: hidden ; overflow-wrap: break-word&quot;&gt;&lt;span id=&quot;docs-internal-guid-cf75bcc0-7fff-0399-cd37-272892f8aaf6&quot;&gt;&lt;div dir=&quot;ltr&quot; style=&quot;margin-left: 0pt&quot; align=&quot;left&quot;&gt;&lt;span style=&quot;text-align: justify&quot;&gt;Gerente comercial&lt;/span&gt;&lt;br&gt;&lt;/div&gt;&lt;/span&gt;&lt;/td&gt;&lt;/tr&gt;&lt;/tbody&gt;&lt;/table&gt;&lt;/div&gt;&lt;/span&gt;&lt;/span&gt;" style="shape=umlActor;verticalLabelPosition=bottom;verticalAlign=top;html=1;outlineConnect=0;fillColor=#ffe6cc;strokeColor=#d79b00;direction=east;" vertex="1" parent="1">
          <mxGeometry x="60" y="390" width="30" height="60" as="geometry" />
        </mxCell>
        <mxCell id="4lb6yPEp9kyUfiVUmwPT-2" value="" style="endArrow=classic;startArrow=classic;html=1;" edge="1" parent="1">
          <mxGeometry width="50" height="50" relative="1" as="geometry">
            <mxPoint x="80" y="380" as="sourcePoint" />
            <mxPoint x="190" y="330" as="targetPoint" />
          </mxGeometry>
        </mxCell>
      </root>
    </mxGraphModel>
  </diagram>
</mxfile>
